<?xml version="1.0" encoding="UTF-8"?>
<!DOCTYPE svg PUBLIC "-//W3C//DTD SVG 1.1//EN" "http://www.w3.org/Graphics/SVG/1.1/DTD/svg11.dtd">
<!-- Creator: CorelDRAW X7 -->
<svg xmlns="http://www.w3.org/2000/svg" xml:space="preserve" width="4269px" height="226px" version="1.1" style="shape-rendering:geometricPrecision; text-rendering:geometricPrecision; image-rendering:optimizeQuality; fill-rule:evenodd; clip-rule:evenodd"
viewBox="0 0 4269 226"
 xmlns:xlink="http://www.w3.org/1999/xlink">
 <defs>
  <style type="text/css">
   <![CDATA[
    .fil2 {fill:none}
    .fil1 {fill:#FEFEFE}
    .fil0 {fill:whitesmoke}
   ]]>
  </style>
   <clipPath id="id0">
    <path d="M1 0l4267 0 0 226 -4267 0 0 -226z"/>
   </clipPath>
 </defs>
 <g id="Layer_x0020_1">
  <metadata id="CorelCorpID_0Corel-Layer"/>
  <polygon class="fil0" points="1,0 4268,0 4268,226 1,226 "/>
  <g style="clip-path:url(#id0)">
   <g id="_2486166025888">
    <g>
     <g>
      <g>
       <g>
        <polygon id="1" class="fil1" points="36,113 32,125 112,150 179,112 173,101 111,134 "/>
        <path class="fil1" d="M109 19c63,0 113,50 113,113 0,62 -50,113 -113,113 -62,0 -113,-51 -113,-113 0,-63 51,-113 113,-113zm0 18c52,0 95,42 95,95 0,52 -43,94 -95,94 -52,0 -95,-42 -95,-94 0,-53 43,-95 95,-95z"/>
       </g>
       <g>
        <polygon class="fil1" points="343,63 340,75 412,97 474,63 468,53 412,83 "/>
        <path class="fil1" d="M410 -23c57,0 104,47 104,104 0,57 -47,103 -104,103 -57,0 -103,-46 -103,-103 0,-57 46,-104 103,-104zm0 17c48,0 86,39 86,86 0,48 -38,87 -86,87 -48,0 -86,-39 -86,-87 0,-47 38,-86 86,-86z"/>
       </g>
       <g>
        <polygon class="fil1" points="620,127 617,137 679,156 732,127 726,119 678,144 "/>
        <path class="fil1" d="M677 54c49,0 88,40 88,89 0,48 -39,88 -88,88 -49,0 -88,-40 -88,-88 0,-49 39,-89 88,-89zm0 15c41,0 74,33 74,73 0,41 -33,74 -74,74 -41,0 -74,-33 -74,-74 0,-40 33,-73 74,-73z"/>
       </g>
       <g>
        <polygon class="fil1" points="858,75 856,82 901,96 938,75 935,69 900,87 "/>
        <path class="fil1" d="M899 23c35,0 64,28 64,63 0,35 -29,63 -64,63 -35,0 -63,-28 -63,-63 0,-35 28,-63 63,-63zm0 10c29,0 53,24 53,53 0,29 -24,53 -53,53 -29,0 -53,-24 -53,-53 0,-29 24,-53 53,-53z"/>
       </g>
       <g>
        <polygon class="fil1" points="1049,132 1048,138 1081,148 1109,132 1106,128 1080,141 "/>
        <path class="fil1" d="M1080 93c26,0 47,21 47,47 0,26 -21,47 -47,47 -26,0 -47,-21 -47,-47 0,-26 21,-47 47,-47zm0 8c21,0 39,18 39,39 0,22 -18,39 -39,39 -22,0 -40,-17 -40,-39 0,-21 18,-39 40,-39z"/>
       </g>
      </g>
      <g>
       <g>
        <polygon class="fil1" points="36,113 32,125 112,150 179,112 173,101 111,134 "/>
        <path class="fil1" d="M109 19c63,0 113,50 113,113 0,62 -50,113 -113,113 -62,0 -113,-51 -113,-113 0,-63 51,-113 113,-113zm0 18c52,0 95,42 95,95 0,52 -43,94 -95,94 -52,0 -95,-42 -95,-94 0,-53 43,-95 95,-95z"/>
       </g>
       <g>
        <polygon class="fil1" points="343,63 340,75 412,97 474,63 468,53 412,83 "/>
        <path class="fil1" d="M410 -23c57,0 104,47 104,104 0,57 -47,103 -104,103 -57,0 -103,-46 -103,-103 0,-57 46,-104 103,-104zm0 17c48,0 86,39 86,86 0,48 -38,87 -86,87 -48,0 -86,-39 -86,-87 0,-47 38,-86 86,-86z"/>
       </g>
       <g>
        <polygon class="fil1" points="620,127 617,137 679,156 732,127 726,119 678,144 "/>
        <path class="fil1" d="M677 54c49,0 88,40 88,89 0,48 -39,88 -88,88 -49,0 -88,-40 -88,-88 0,-49 39,-89 88,-89zm0 15c41,0 74,33 74,73 0,41 -33,74 -74,74 -41,0 -74,-33 -74,-74 0,-40 33,-73 74,-73z"/>
       </g>
       <g>
        <polygon class="fil1" points="858,75 856,82 901,96 938,75 935,69 900,87 "/>
        <path class="fil1" d="M899 23c35,0 64,28 64,63 0,35 -29,63 -64,63 -35,0 -63,-28 -63,-63 0,-35 28,-63 63,-63zm0 10c29,0 53,24 53,53 0,29 -24,53 -53,53 -29,0 -53,-24 -53,-53 0,-29 24,-53 53,-53z"/>
       </g>
       <g>
        <polygon class="fil1" points="1049,132 1048,138 1081,148 1109,132 1106,128 1080,141 "/>
        <path class="fil1" d="M1080 93c26,0 47,21 47,47 0,26 -21,47 -47,47 -26,0 -47,-21 -47,-47 0,-26 21,-47 47,-47zm0 8c21,0 39,18 39,39 0,22 -18,39 -39,39 -22,0 -40,-17 -40,-39 0,-21 18,-39 40,-39z"/>
       </g>
      </g>
     </g>
     <g>
      <g>
       <g>
        <polygon class="fil1" points="4230,113 4234,125 4155,150 4087,112 4094,101 4156,134 "/>
        <path class="fil1" d="M4157 19c-62,0 -113,50 -113,113 0,62 51,113 113,113 63,0 113,-51 113,-113 0,-63 -50,-113 -113,-113zm0 18c-52,0 -94,42 -94,95 0,52 42,94 94,94 53,0 95,-42 95,-94 0,-53 -42,-95 -95,-95z"/>
       </g>
       <g>
        <polygon class="fil1" points="3923,63 3927,75 3854,97 3792,63 3798,53 3855,83 "/>
        <path class="fil1" d="M3856 -23c-57,0 -103,47 -103,104 0,57 46,103 103,103 57,0 103,-46 103,-103 0,-57 -46,-104 -103,-104zm0 17c-47,0 -86,39 -86,86 0,48 39,87 86,87 48,0 87,-39 87,-87 0,-47 -39,-86 -87,-86z"/>
       </g>
       <g>
        <polygon class="fil1" points="3646,127 3649,137 3587,156 3535,127 3540,119 3588,144 "/>
        <path class="fil1" d="M3589 54c-48,0 -88,40 -88,89 0,48 40,88 88,88 49,0 88,-40 88,-88 0,-49 -39,-89 -88,-89zm0 15c-40,0 -73,33 -73,73 0,41 33,74 73,74 41,0 74,-33 74,-74 0,-40 -33,-73 -74,-73z"/>
       </g>
       <g>
        <polygon class="fil1" points="3408,75 3410,82 3366,96 3328,75 3332,69 3366,87 "/>
        <path class="fil1" d="M3367 23c-35,0 -63,28 -63,63 0,35 28,63 63,63 35,0 63,-28 63,-63 0,-35 -28,-63 -63,-63zm0 10c-29,0 -53,24 -53,53 0,29 24,53 53,53 29,0 53,-24 53,-53 0,-29 -24,-53 -53,-53z"/>
       </g>
       <g>
        <polygon class="fil1" points="3217,132 3219,138 3186,148 3158,132 3160,128 3186,141 "/>
        <path class="fil1" d="M3187 93c-26,0 -47,21 -47,47 0,26 21,47 47,47 26,0 47,-21 47,-47 0,-26 -21,-47 -47,-47zm0 8c-22,0 -40,18 -40,39 0,22 18,39 40,39 21,0 39,-17 39,-39 0,-21 -18,-39 -39,-39z"/>
       </g>
      </g>
      <g>
       <g>
        <polygon class="fil1" points="4230,113 4234,125 4155,150 4087,112 4094,101 4156,134 "/>
        <path class="fil1" d="M4157 19c-62,0 -113,50 -113,113 0,62 51,113 113,113 63,0 113,-51 113,-113 0,-63 -50,-113 -113,-113zm0 18c-52,0 -94,42 -94,95 0,52 42,94 94,94 53,0 95,-42 95,-94 0,-53 -42,-95 -95,-95z"/>
       </g>
       <g>
        <polygon class="fil1" points="3923,63 3927,75 3854,97 3792,63 3798,53 3855,83 "/>
        <path class="fil1" d="M3856 -23c-57,0 -103,47 -103,104 0,57 46,103 103,103 57,0 103,-46 103,-103 0,-57 -46,-104 -103,-104zm0 17c-47,0 -86,39 -86,86 0,48 39,87 86,87 48,0 87,-39 87,-87 0,-47 -39,-86 -87,-86z"/>
       </g>
       <g>
        <polygon class="fil1" points="3646,127 3649,137 3587,156 3535,127 3540,119 3588,144 "/>
        <path class="fil1" d="M3589 54c-48,0 -88,40 -88,89 0,48 40,88 88,88 49,0 88,-40 88,-88 0,-49 -39,-89 -88,-89zm0 15c-40,0 -73,33 -73,73 0,41 33,74 73,74 41,0 74,-33 74,-74 0,-40 -33,-73 -74,-73z"/>
       </g>
       <g>
        <polygon class="fil1" points="3408,75 3410,82 3366,96 3328,75 3332,69 3366,87 "/>
        <path class="fil1" d="M3367 23c-35,0 -63,28 -63,63 0,35 28,63 63,63 35,0 63,-28 63,-63 0,-35 -28,-63 -63,-63zm0 10c-29,0 -53,24 -53,53 0,29 24,53 53,53 29,0 53,-24 53,-53 0,-29 -24,-53 -53,-53z"/>
       </g>
       <g>
        <polygon class="fil1" points="3217,132 3219,138 3186,148 3158,132 3160,128 3186,141 "/>
        <path class="fil1" d="M3187 93c-26,0 -47,21 -47,47 0,26 21,47 47,47 26,0 47,-21 47,-47 0,-26 -21,-47 -47,-47zm0 8c-22,0 -40,18 -40,39 0,22 18,39 40,39 21,0 39,-17 39,-39 0,-21 -18,-39 -39,-39z"/>
       </g>
      </g>
     </g>
    </g>
   </g>
  </g>
  <polygon class="fil2" points="1,0 4268,0 4268,226 1,226 "/>
 </g>
</svg>
